<svg width="127" height="52" viewBox="0 0 127 52" fill="none" xmlns="http://www.w3.org/2000/svg">
<path d="M23.2059 6.69052C21.7177 8.45223 19.3367 9.83784 16.9556 9.63989C16.658 7.26456 17.8287 4.73087 19.1978 3.18691C20.6859 1.38561 23.2852 0.0989722 25.4084 0C25.6465 2.45451 24.6742 4.88923 23.2059 6.69052ZM25.3687 10.0952C21.9161 9.89722 18.9597 12.0548 17.3326 12.0548C15.6659 12.0548 13.1658 10.1941 10.4276 10.2535C6.87582 10.3129 3.58203 12.3121 1.77639 15.499C-1.95393 21.8927 0.804128 31.3346 4.41539 36.5405C6.18134 39.1138 8.28461 41.9444 11.0625 41.8455C13.7015 41.7465 14.7333 40.1431 17.908 40.1431C21.1026 40.1431 22.0352 41.8454 24.8131 41.8059C27.6902 41.7465 29.4958 39.2326 31.2618 36.6593C33.2658 33.7297 34.0992 30.8991 34.1389 30.7408C34.0794 30.6814 28.5831 28.5832 28.5236 22.249C28.464 16.944 32.869 14.4301 33.0674 14.2718C30.5872 10.59 26.7179 10.1941 25.3687 10.0952ZM45.2902 2.92958V41.5089H51.3023V28.3258H59.6162C67.2157 28.3258 72.5334 23.1199 72.5334 15.598C72.5334 8.07613 67.2951 2.92958 59.8146 2.92958H45.2902ZM51.3023 7.97716H58.2272C63.4457 7.97716 66.422 10.7484 66.422 15.6178C66.422 20.4872 63.4457 23.2981 58.2074 23.2981H51.3023V7.97716ZM83.4862 41.8059C87.2562 41.8059 90.7485 39.9056 92.3358 36.877H92.4549V41.5089H98.0107V22.3083C98.0107 16.7461 93.5462 13.1435 86.6808 13.1435C80.3115 13.1435 75.5891 16.7857 75.4105 21.7739H80.8274C81.2838 19.3986 83.4862 17.8348 86.5022 17.8348C90.173 17.8348 92.2366 19.5371 92.2366 22.6844V24.8222L84.7363 25.2775C77.7717 25.6932 74.0017 28.5436 74.0017 33.4922C74.0216 38.4804 77.9106 41.8059 83.4862 41.8059ZM85.1133 37.2333C81.9187 37.2333 79.875 35.6894 79.875 33.3536C79.875 30.9189 81.8393 29.5135 85.5895 29.2958L92.2565 28.8801V31.0575C92.2565 34.6601 89.1809 37.2333 85.1133 37.2333ZM105.451 52C111.305 52 114.063 49.7632 116.464 43.0133L127 13.5196H120.889L113.825 36.303H113.706L106.642 13.5196H100.372L110.531 41.6079L109.975 43.3102C109.063 46.2002 107.575 47.3285 104.916 47.3285C104.44 47.3285 103.527 47.2691 103.15 47.2295V51.8614C103.507 51.9406 104.995 52 105.451 52Z" fill="black"/>
</svg>