<svg width="39" height="24" viewBox="0 0 39 24" fill="none" xmlns="http://www.w3.org/2000/svg">
<path d="M38.7644 11.0875C35.0926 4.47437 27.8234 0 19.5 0C11.1766 0 3.90539 4.4775 0.235588 11.0881C0.0806998 11.3709 0 11.6834 0 12.0003C0 12.3172 0.0806998 12.6297 0.235588 12.9125C3.90742 19.5256 11.1766 24 19.5 24C27.8234 24 35.0946 19.5225 38.7644 12.9119C38.9193 12.6291 39 12.3166 39 11.9997C39 11.6828 38.9193 11.3703 38.7644 11.0875ZM19.5 21C17.5716 21 15.6866 20.4722 14.0832 19.4832C12.4798 18.4943 11.2301 17.0887 10.4922 15.4442C9.7542 13.7996 9.56112 11.99 9.93733 10.2442C10.3135 8.49836 11.2421 6.89471 12.6057 5.63604C13.9693 4.37737 15.7065 3.5202 17.5979 3.17293C19.4892 2.82567 21.4496 3.0039 23.2312 3.68508C25.0128 4.36627 26.5355 5.51983 27.6068 6.99987C28.6782 8.47991 29.25 10.22 29.25 12C29.2506 13.1821 28.9989 14.3526 28.5091 15.4448C28.0193 16.537 27.3012 17.5294 26.3957 18.3652C25.4902 19.2011 24.4151 19.864 23.2319 20.3161C22.0487 20.7682 20.7806 21.0006 19.5 21ZM19.5 6C18.9198 6.00748 18.3434 6.08716 17.7863 6.23687C18.2455 6.81292 18.4659 7.5218 18.4074 8.23497C18.349 8.94813 18.0156 9.61834 17.4677 10.1241C16.9199 10.6298 16.1938 10.9375 15.4212 10.9915C14.6486 11.0454 13.8807 10.842 13.2566 10.4181C12.9012 11.6266 12.9654 12.9075 13.44 14.0806C13.9146 15.2537 14.7758 16.2599 15.9024 16.9575C17.0289 17.6551 18.3641 18.009 19.72 17.9695C21.0759 17.93 22.3843 17.4989 23.4609 16.7371C24.5375 15.9752 25.3282 14.9209 25.7216 13.7225C26.1151 12.5241 26.0915 11.242 25.6542 10.0566C25.2169 8.87123 24.388 7.84227 23.284 7.11457C22.18 6.38686 20.8566 5.99705 19.5 6Z" fill="black"/>
</svg>