<svg width="42" height="45" viewBox="0 0 42 45" fill="none" xmlns="http://www.w3.org/2000/svg">
<path d="M40.0018 31.487L31.0021 27.3048C30.6176 27.1271 30.1902 27.0893 29.7841 27.1969C29.378 27.3045 29.0152 27.5518 28.7504 27.9015L24.757 33.1619C18.5023 29.9649 13.4719 24.5152 10.5286 17.7477L15.4053 13.4442C15.7301 13.1593 15.9602 12.7678 16.0608 12.329C16.1614 11.8901 16.1269 11.4278 15.9626 11.012L12.1143 1.27537C11.934 0.827145 11.6146 0.460963 11.2113 0.239968C10.8079 0.0189725 10.3458 -0.0429834 9.90474 0.0647833L1.54136 2.13948C1.11609 2.24505 0.736481 2.50329 0.464495 2.87206C0.192509 3.24082 0.0442047 3.69834 0.0437878 4.16993C0.0194583 26.4572 16.7139 44.5082 37.3032 44.5345C37.7397 44.5353 38.1635 44.3762 38.5055 44.0831C38.8475 43.79 39.0875 43.3802 39.1862 42.9207L41.1255 33.8866C41.2256 33.4078 41.1682 32.9063 40.9631 32.4683C40.758 32.0303 40.4181 31.6833 40.0018 31.487Z" fill="white"/>
</svg>