<svg width="47" height="46" viewBox="0 0 47 46" fill="none" xmlns="http://www.w3.org/2000/svg">
<path d="M12.8507 40.25C10.7946 40.25 8.73851 38.2375 7.71045 37.375C2.57015 33.35 1.02806 31.9125 0 31.05V43.125C0 44.7125 1.15094 46 2.57015 46H23.1313C24.5505 46 25.7015 44.7125 25.7015 43.125V31.05C24.6734 31.9125 23.1313 33.35 17.991 37.375C16.963 38.2375 14.9069 40.25 12.8507 40.25ZM23.1313 23H2.57015C1.15094 23 0 24.2875 0 25.875V27.3125C2.05612 29.0375 1.7991 29.0375 9.25254 35.075C10.0236 35.65 11.5657 37.375 12.8507 37.375C14.1358 37.375 15.6779 35.65 16.449 35.3625C23.9024 29.325 23.6454 29.325 25.7015 27.6V25.875C25.7015 24.2875 24.5505 23 23.1313 23ZM43.6925 14.375H17.991C16.5718 14.375 15.4209 15.6625 15.4209 17.25V20.125H23.1313C25.7987 20.125 27.9978 22.4088 28.2483 25.3198L28.2716 25.3V37.375H43.6925C45.1117 37.375 46.2627 36.0875 46.2627 34.5V17.25C46.2627 15.6625 45.1117 14.375 43.6925 14.375ZM41.1224 25.875H35.9821V20.125H41.1224V25.875ZM12.8507 17.25C12.8507 14.0794 15.1567 11.5 17.991 11.5H35.9821V2.875C35.9821 1.28746 34.8311 0 33.4119 0H7.71045C6.29124 0 5.1403 1.28746 5.1403 2.875V20.125H12.8507V17.25Z" fill="white"/>
</svg>