<svg width="38" height="55" viewBox="0 0 38 55" fill="none" xmlns="http://www.w3.org/2000/svg">
<path d="M17.0184 53.8903C2.66437 31.2631 0 28.9408 0 20.625C0 9.23409 8.4921 0 18.9677 0C29.4433 0 37.9354 9.23409 37.9354 20.625C37.9354 28.9408 35.271 31.2631 20.917 53.8903C19.9751 55.3699 17.9602 55.3698 17.0184 53.8903ZM18.9677 29.2187C23.3325 29.2187 26.8709 25.3712 26.8709 20.625C26.8709 15.8788 23.3325 12.0312 18.9677 12.0312C14.6029 12.0312 11.0645 15.8788 11.0645 20.625C11.0645 25.3712 14.6029 29.2187 18.9677 29.2187Z" fill="white"/>
</svg>