<svg width="24" height="23" viewBox="0 0 24 23" fill="none" xmlns="http://www.w3.org/2000/svg">
<path d="M6.56209 19.4444C5.53403 19.4444 4.50597 18.4722 3.99194 18.0556C1.42179 16.1111 0.650749 15.4167 0.136719 15V20.8333C0.136719 21.6003 0.712191 22.2222 1.42179 22.2222H11.7024C12.412 22.2222 12.9875 21.6003 12.9875 20.8333V15C12.4734 15.4167 11.7024 16.1111 9.13224 18.0556C8.61821 18.4722 7.59015 19.4444 6.56209 19.4444ZM11.7024 11.1111H1.42179C0.712191 11.1111 0.136719 11.7331 0.136719 12.5V13.1944C1.16478 14.0278 1.03627 14.0278 4.76299 16.9444C5.14851 17.2222 5.91955 18.0556 6.56209 18.0556C7.20463 18.0556 7.97567 17.2222 8.3612 17.0833C12.0879 14.1667 11.9594 14.1667 12.9875 13.3333V12.5C12.9875 11.7331 12.412 11.1111 11.7024 11.1111ZM21.983 6.94444H9.13224C8.42264 6.94444 7.84717 7.56641 7.84717 8.33333V9.72222H11.7024C13.0361 9.72222 14.1356 10.8255 14.2609 12.2318L14.2725 12.2222V18.0556H21.983C22.6926 18.0556 23.2681 17.4336 23.2681 16.6667V8.33333C23.2681 7.56641 22.6926 6.94444 21.983 6.94444ZM20.6979 12.5H18.1278V9.72222H20.6979V12.5ZM6.56209 8.33333C6.56209 6.80165 7.71504 5.55556 9.13224 5.55556H18.1278V1.38889C18.1278 0.621962 17.5523 0 16.8427 0H3.99194C3.28234 0 2.70687 0.621962 2.70687 1.38889V9.72222H6.56209V8.33333Z" fill="white" fill-opacity="0.62"/>
</svg>