<svg width="127" height="79" viewBox="0 0 127 79" fill="none" xmlns="http://www.w3.org/2000/svg">
<path d="M0 53.8458C0.477912 52.977 1.0805 52.8322 2.01554 53.3286C4.17654 54.487 6.29598 55.6868 8.49853 56.7832C16.9279 60.9678 25.8094 64.1811 34.9707 66.3608C39.3025 67.4013 43.6859 68.216 48.1029 68.8018C54.6442 69.6771 61.2446 70.0368 67.8428 69.8775C71.4583 69.7947 75.0738 69.5051 78.6685 69.0914C90.3398 67.737 101.762 64.7566 112.6 60.2378C113.203 59.9895 113.826 59.824 114.491 59.9895C115.883 60.3619 116.361 61.8513 115.343 62.8649C114.724 63.4316 114.056 63.9438 113.348 64.3957C106.969 68.7604 100.008 71.9254 92.6526 74.3043C87.5592 75.9385 82.3402 77.1561 77.0478 77.945C73.3872 78.5032 69.6953 78.8348 65.9935 78.9379C65.8192 78.9484 65.6458 78.9691 65.474 79H61.0897C60.9179 78.9691 60.7444 78.9484 60.5702 78.9379C59.8222 78.8966 59.0741 78.8759 58.3469 78.8552C54.8373 78.6968 51.3403 78.3307 47.8743 77.7588C42.1832 76.8355 36.5905 75.3881 31.1682 73.4355C20.0141 69.4308 9.74148 63.3201 0.914267 55.4386C0.540249 55.1076 0.290903 54.6525 0 54.2595V53.8458ZM32.8305 0.0206857L31.937 0.144802C29.0798 0.49589 26.361 1.57143 24.0411 3.2684C23.5424 3.62006 23.0852 3.99241 22.5658 4.38544C22.5217 4.29433 22.4936 4.19638 22.4827 4.09584C22.3995 3.53731 22.3164 2.9581 22.2125 2.39958C22.0671 1.44802 21.5892 1.0343 20.6333 1.0343H18.2438C16.81 1.0343 16.5399 1.30322 16.5399 2.73056V46.0264C16.5399 46.2333 16.5399 46.4402 16.5607 46.647C16.6023 47.2676 16.9763 47.6606 17.5789 47.6813C19.0334 47.702 20.5087 47.702 21.9632 47.6813C22.5658 47.6813 22.9398 47.2676 23.0021 46.647C23.0229 46.4402 23.0229 46.2333 23.0229 46.0264V31.0498C23.2515 31.2359 23.3761 31.3394 23.48 31.4428C27.1994 34.525 31.4799 35.5386 36.1551 34.6284C40.394 33.801 43.3446 31.2152 45.2562 27.409C46.7107 24.5336 47.3133 21.4721 47.3964 18.2865C47.5003 14.7491 47.1471 11.2739 45.7134 7.98481C43.9472 3.93035 41.0173 1.26185 36.5915 0.351662C35.9265 0.20686 35.2408 0.144802 34.5551 0.0413715C33.9733 0.0206854 33.4123 0.0206857 32.8305 0.0206857ZM22.9813 8.68814C22.9695 8.55276 22.9964 8.41681 23.0589 8.29601C23.1214 8.17521 23.217 8.07449 23.3346 8.0055C26.1813 6.04032 29.3189 5.00602 32.8097 5.27494C35.9058 5.50249 38.4408 7.01257 39.7706 10.6326C40.581 12.846 40.7888 15.1422 40.7888 17.459C40.7888 19.6104 40.6225 21.7203 39.9576 23.7889C38.5447 28.1951 35.3032 29.8706 31.1059 29.6845C28.1968 29.5604 25.6618 28.4433 23.3346 26.8091C23.2185 26.7385 23.1241 26.6375 23.0618 26.5171C22.9995 26.3967 22.9717 26.2616 22.9813 26.1265C23.0021 23.2097 22.9813 20.3137 22.9813 17.397C22.9813 14.4802 23.0021 11.6049 22.9813 8.68814ZM65.7233 0.0206857C65.5155 0.0413718 65.3078 0.0827442 65.1207 0.10343C63.0959 0.188458 61.0844 0.472548 59.1157 0.951558C57.8482 1.28253 56.6222 1.73763 55.3963 2.15135C54.6482 2.39958 54.2742 2.93742 54.295 3.74417C54.3158 4.42681 54.2742 5.10945 54.295 5.79209C54.3158 6.78502 54.7313 7.05394 55.708 6.80571C57.3287 6.39199 58.9494 5.93689 60.591 5.6266C63.1468 5.15082 65.7233 4.94396 68.3207 5.337C69.6713 5.54386 70.9388 5.93689 71.8115 7.07463C72.5803 8.06756 72.8712 9.24666 72.9128 10.4671C72.9751 12.1841 72.9544 13.901 72.9751 15.618C72.9701 15.7155 72.9562 15.8125 72.9336 15.9076C72.8297 15.8869 72.7466 15.9076 72.6635 15.8869C70.482 15.3515 68.2567 15.0123 66.0142 14.8733C63.6662 14.7491 61.339 14.894 59.0949 15.68C56.4144 16.6109 54.2534 18.2244 52.9859 20.8308C52.0093 22.8581 51.8639 25.0094 52.1756 27.1815C52.5911 30.0775 54.0457 32.3116 56.6222 33.7389C59.0949 35.1042 61.7754 35.2697 64.4974 34.856C67.635 34.3802 70.4193 33.0563 72.8712 31.0498C72.9715 30.9596 73.0833 30.8831 73.2037 30.8222C73.3284 31.6083 73.4323 32.353 73.5777 33.0977C73.7024 33.7389 74.0972 34.1527 74.6998 34.1733C75.8218 34.194 76.9647 34.194 78.0867 34.1733C78.347 34.1713 78.5964 34.0689 78.7824 33.8875C78.9684 33.7062 79.0766 33.4602 79.0841 33.2011C79.1014 33.0085 79.1083 32.8152 79.1049 32.6219V10.6947C79.115 9.80162 79.0524 8.9092 78.9179 8.02619C78.5231 5.35769 77.3802 3.16497 74.9699 1.73763C73.5777 0.910186 72.0401 0.496466 70.4401 0.268919C69.6921 0.165489 68.944 0.10343 68.196 0C67.3856 0.020686 66.5545 0.0206857 65.7233 0.0206857ZM72.9959 26.4368C73.0038 26.5584 72.979 26.6799 72.9243 26.789C72.8695 26.898 72.7867 26.9906 72.6842 27.0573C70.357 28.7329 67.8012 29.85 64.913 30.1396C63.7286 30.2637 62.5442 30.2223 61.4221 29.7672C60.8055 29.5428 60.2508 29.1766 59.8031 28.6986C59.3554 28.2205 59.0273 27.644 58.8456 27.016C58.4336 25.7108 58.4264 24.3122 58.8248 23.0029C59.3442 21.2859 60.5702 20.3137 62.2325 19.7759C63.9009 19.275 65.6547 19.1201 67.3856 19.3208C69.1311 19.4656 70.8349 19.7965 72.5803 20.0241C72.9128 20.0655 73.0167 20.2309 73.0167 20.5619C72.9959 21.5549 73.0167 22.5271 73.0167 23.52C73.0167 24.513 72.9751 25.4645 72.9959 26.4368ZM127 53.2045C126.792 52.1702 126.003 51.7772 125.109 51.4876C123.693 51.0441 122.227 50.7732 120.746 50.6808C118.025 50.4496 115.286 50.5818 112.6 51.0738C109.629 51.6324 106.803 52.5839 104.289 54.3009C103.989 54.4924 103.729 54.738 103.52 55.0249C103.447 55.1486 103.4 55.2857 103.383 55.428C103.365 55.5702 103.376 55.7146 103.416 55.8523C103.499 56.1626 103.852 56.2453 104.164 56.2247C104.317 56.2281 104.47 56.2212 104.621 56.204C106.242 56.0385 107.842 55.8523 109.463 55.6868C111.831 55.4593 114.221 55.3145 116.59 55.5007C117.604 55.5845 118.606 55.7717 119.582 56.0592C120.642 56.3488 121.12 57.1349 121.161 58.2105C121.244 59.8654 120.87 61.4582 120.434 63.0304C119.582 66.216 118.356 69.2982 117.151 72.3598C117.063 72.56 116.993 72.7677 116.943 72.9804C116.839 73.5803 117.192 73.9733 117.795 73.8285C118.167 73.7453 118.511 73.567 118.792 73.3113C119.73 72.4437 120.611 71.5179 121.431 70.5394C124.091 67.1469 125.649 63.2372 126.564 59.038C126.73 58.2933 126.855 57.5279 127 56.7832V53.2045ZM99.5512 27.7193C96.8708 20.3344 94.1903 12.9426 91.5098 5.54386C91.0942 4.36476 90.6371 3.20634 90.2008 2.04792C89.9722 1.44802 89.5358 1.05499 88.8709 1.05499C87.2917 1.0343 85.7125 1.01362 84.1126 1.0343C83.5931 1.0343 83.3438 1.44802 83.4476 1.96517C83.5477 2.39493 83.6797 2.81671 83.8424 3.22702C87.9151 13.2598 92.0085 23.2925 96.1227 33.3252C96.476 34.1733 96.5591 34.8974 96.1643 35.7662C95.4786 37.2762 94.9383 38.8691 94.2318 40.3792C93.6085 41.7238 92.5695 42.7374 91.0735 43.1304C90.03 43.4018 88.9451 43.479 87.8735 43.3579C87.3541 43.3166 86.8346 43.1925 86.3151 43.1511C85.6086 43.1097 85.2554 43.42 85.2346 44.144C85.2138 44.8335 85.2138 45.5162 85.2346 46.1919C85.2554 47.3297 85.6502 47.8468 86.7723 48.033C87.9301 48.2625 89.1042 48.4008 90.2839 48.4467C93.837 48.5295 96.663 47.1021 98.4915 44.0199C99.2275 42.8027 99.8666 41.5301 100.403 40.2137C105.328 27.8434 110.218 15.4594 115.073 3.06154C115.225 2.6953 115.336 2.31385 115.405 1.9238C115.489 1.34459 115.218 1.01362 114.637 1.01362C113.265 0.99293 111.873 1.01362 110.502 1.01362C110.153 0.989301 109.805 1.08201 109.515 1.27696C109.225 1.4719 109.009 1.75788 108.902 2.08929C108.798 2.37889 108.673 2.64781 108.569 2.93742L101.338 23.6235C100.819 25.1129 100.278 26.6229 99.7382 28.2158C99.6551 27.9882 99.6135 27.8641 99.5512 27.7193Z" fill="black"/>
</svg>