<svg width="39" height="30" viewBox="0 0 39 30" fill="none" xmlns="http://www.w3.org/2000/svg">
<path d="M20.4615 12.5491C20.4615 13.7009 19.7505 14.3638 18.4979 14.3638H16.8526V10.7344H18.5047C19.7505 10.7344 20.4615 11.3906 20.4615 12.5491ZM23.6776 16.7411C23.6776 17.2969 24.1651 17.6585 24.9302 17.6585C25.9052 17.6585 26.6365 17.0491 26.6365 16.192V15.6763L25.0453 15.7768C24.1448 15.8371 23.6776 16.1652 23.6776 16.7411ZM39 3.21429V26.7857C39 28.5603 37.5443 30 35.75 30H3.25C1.45573 30 0 28.5603 0 26.7857V3.21429C0 1.43973 1.45573 0 3.25 0H35.75C37.5443 0 39 1.43973 39 3.21429ZM8.65313 11.1295C9.22188 11.1763 9.79062 10.8482 10.1495 10.433C10.5016 10.0045 10.7318 9.42857 10.6708 8.84598C10.1698 8.86607 9.54688 9.17411 9.18802 9.60268C8.86302 9.97098 8.58542 10.567 8.65313 11.1295ZM12.7563 16.1183C12.7427 16.1049 11.4292 15.6094 11.4156 14.1094C11.4021 12.8571 12.4516 12.2545 12.499 12.221C11.9031 11.3504 10.9823 11.2567 10.6641 11.2366C9.83802 11.1897 9.13385 11.6987 8.74115 11.6987C8.34167 11.6987 7.74583 11.2567 7.09583 11.2701C6.24948 11.2835 5.45729 11.7589 5.03073 12.5156C4.14375 14.029 4.80052 16.2656 5.66042 17.4978C6.08021 18.1071 6.58802 18.7768 7.25156 18.75C7.88125 18.7232 8.13177 18.3482 8.8901 18.3482C9.65521 18.3482 9.87188 18.75 10.5354 18.7433C11.226 18.7299 11.6526 18.1339 12.0792 17.5246C12.5464 16.8281 12.7427 16.1585 12.7563 16.1183ZM21.924 12.5424C21.924 10.7612 20.6714 9.54241 18.8839 9.54241H15.4172V18.6763H16.8526V15.5558H18.8365C20.651 15.5558 21.924 14.3237 21.924 12.5424ZM28.0177 14.1295C28.0177 12.8103 26.9479 11.9598 25.3094 11.9598C23.7859 11.9598 22.662 12.8237 22.6214 14.0022H23.9146C24.0229 13.4397 24.551 13.0714 25.2688 13.0714C26.149 13.0714 26.6365 13.4732 26.6365 14.2232V14.7254L24.849 14.8326C23.1833 14.933 22.2828 15.6094 22.2828 16.7812C22.2828 17.9665 23.2104 18.75 24.5443 18.75C25.4448 18.75 26.2776 18.3013 26.6568 17.5848H26.6839V18.683H28.0109V14.1295H28.0177ZM34.9375 12.0469H33.4818L31.7958 17.4442H31.7688L30.0828 12.0469H28.5729L31.0036 18.6964L30.875 19.0982C30.6583 19.7812 30.2995 20.0491 29.663 20.0491C29.5479 20.0491 29.3313 20.0357 29.2432 20.029V21.1272C29.3245 21.154 29.6833 21.1607 29.7917 21.1607C31.1932 21.1607 31.85 20.6317 32.4255 19.0312L34.9375 12.0469Z" fill="black"/>
</svg>