<svg width="39" height="30" viewBox="0 0 39 30" fill="none" xmlns="http://www.w3.org/2000/svg">
<path d="M32.6964 25.2656C32.6964 25.721 32.3849 26.0491 31.938 26.0491C31.4776 26.0491 31.1797 25.7009 31.1797 25.2656C31.1797 24.8304 31.4776 24.4821 31.938 24.4821C32.3849 24.4821 32.6964 24.8304 32.6964 25.2656ZM11.6526 24.4821C11.1719 24.4821 10.8943 24.8304 10.8943 25.2656C10.8943 25.7009 11.1719 26.0491 11.6526 26.0491C12.0927 26.0491 12.3906 25.721 12.3906 25.2656C12.3839 24.8304 12.0927 24.4821 11.6526 24.4821ZM19.6083 24.4621C19.2427 24.4621 19.0193 24.6964 18.9651 25.0446H20.2583C20.1974 24.6629 19.9604 24.4621 19.6083 24.4621ZM26.9073 24.4821C26.4469 24.4821 26.1693 24.8304 26.1693 25.2656C26.1693 25.7009 26.4469 26.0491 26.9073 26.0491C27.3677 26.0491 27.6656 25.721 27.6656 25.2656C27.6656 24.8304 27.3677 24.4821 26.9073 24.4821ZM34.0776 26.2299C34.0776 26.25 34.0979 26.2634 34.0979 26.3036C34.0979 26.3237 34.0776 26.3371 34.0776 26.3772C34.0573 26.3973 34.0573 26.4107 34.0438 26.4308C34.0234 26.4509 34.0099 26.4643 33.9693 26.4643C33.949 26.4844 33.9354 26.4844 33.8948 26.4844C33.8745 26.4844 33.8609 26.4844 33.8203 26.4643C33.8 26.4643 33.7865 26.4442 33.7661 26.4308C33.7458 26.4107 33.7323 26.3973 33.7323 26.3772C33.712 26.3437 33.712 26.3237 33.712 26.3036C33.712 26.2701 33.712 26.25 33.7323 26.2299C33.7323 26.1964 33.7526 26.1763 33.7661 26.1562C33.7865 26.1362 33.8 26.1362 33.8203 26.1228C33.8542 26.1027 33.8745 26.1027 33.8948 26.1027C33.9286 26.1027 33.949 26.1027 33.9693 26.1228C34.0031 26.1429 34.0234 26.1429 34.0438 26.1562C34.0641 26.1696 34.0573 26.1964 34.0776 26.2299ZM33.9286 26.3237C33.9625 26.3237 33.9625 26.3036 33.9828 26.3036C34.0031 26.2835 34.0031 26.2701 34.0031 26.25C34.0031 26.2299 34.0031 26.2165 33.9828 26.1964C33.9625 26.1964 33.949 26.1763 33.9083 26.1763H33.8V26.4107H33.8542V26.317H33.8745L33.949 26.4107H34.0031L33.9286 26.3237ZM39 3.21429V26.7857C39 28.5603 37.5443 30 35.75 30H3.25C1.45573 30 0 28.5603 0 26.7857V3.21429C0 1.43973 1.45573 0 3.25 0H35.75C37.5443 0 39 1.43973 39 3.21429ZM4.33333 12.5625C4.33333 17.6853 8.53802 21.8371 13.7109 21.8371C15.5526 21.8371 17.3604 21.2879 18.8906 20.2902C13.9547 16.3192 13.9885 8.82589 18.8906 4.85491C17.3604 3.85045 15.5526 3.30804 13.7109 3.30804C8.53802 3.30134 4.33333 7.45982 4.33333 12.5625ZM19.5 19.8482C24.2734 16.1652 24.2531 8.98661 19.5 5.28348C14.7469 8.98661 14.7266 16.1719 19.5 19.8482ZM9.8651 24.9576C9.8651 24.375 9.47917 23.9933 8.86979 23.9732C8.55833 23.9732 8.22656 24.067 8.00313 24.4085C7.84063 24.1339 7.56302 23.9732 7.17708 23.9732C6.91979 23.9732 6.6625 24.067 6.45938 24.3348V24.0402H5.90417V26.4978H6.45938C6.45938 25.2321 6.2901 24.4754 7.06875 24.4754C7.75938 24.4754 7.62396 25.1585 7.62396 26.4978H8.15885C8.15885 25.2723 7.98958 24.4754 8.76823 24.4754C9.45885 24.4754 9.32344 25.1451 9.32344 26.4978H9.87865V24.9576H9.8651ZM12.9052 24.0402H12.3703V24.3348C12.1875 24.1138 11.9302 23.9732 11.5781 23.9732C10.8807 23.9732 10.3458 24.5223 10.3458 25.2656C10.3458 26.0156 10.8807 26.558 11.5781 26.558C11.9302 26.558 12.1875 26.4308 12.3703 26.1964V26.5045H12.9052V24.0402ZM15.6474 25.7545C15.6474 24.75 14.0969 25.2054 14.0969 24.7366C14.0969 24.3549 14.9026 24.4152 15.3495 24.6629L15.5729 24.2277C14.9365 23.8192 13.5281 23.8259 13.5281 24.7768C13.5281 25.7344 15.0786 25.3326 15.0786 25.7812C15.0786 26.2031 14.1646 26.1696 13.6771 25.8348L13.4401 26.2567C14.1984 26.7656 15.6474 26.6585 15.6474 25.7545ZM18.0443 26.3772L17.8953 25.9219C17.638 26.0625 17.0693 26.2165 17.0693 25.6473V24.5357H17.9563V24.0402H17.0693V23.2902H16.5141V24.0402H15.9995V24.529H16.5141V25.6473C16.5141 26.8259 17.6854 26.6116 18.0443 26.3772ZM18.9448 25.4799H20.8068C20.8068 24.3951 20.3057 23.9665 19.6286 23.9665C18.9109 23.9665 18.3964 24.4955 18.3964 25.2589C18.3964 26.6317 19.9266 26.8594 20.6849 26.2098L20.4276 25.808C19.8995 26.2366 19.1005 26.1964 18.9448 25.4799ZM22.9464 24.0402C22.6349 23.9062 22.1609 23.9196 21.9172 24.3348V24.0402H21.362V26.4978H21.9172V25.1116C21.9172 24.3348 22.5604 24.4353 22.7839 24.5491L22.9464 24.0402ZM23.6641 25.2656C23.6641 24.5022 24.4495 24.2545 25.0656 24.7031L25.3229 24.2679C24.5375 23.6585 23.1089 23.9933 23.1089 25.2723C23.1089 26.5982 24.6255 26.8661 25.3229 26.2768L25.0656 25.8415C24.4427 26.2768 23.6641 26.0156 23.6641 25.2656ZM28.1802 24.0402H27.625V24.3348C27.063 23.5982 25.6005 24.0134 25.6005 25.2656C25.6005 26.5513 27.1172 26.9196 27.625 26.1964V26.5045H28.1802V24.0402ZM30.462 24.0402C30.2995 23.9598 29.7172 23.846 29.4328 24.3348V24.0402H28.8979V26.4978H29.4328V25.1116C29.4328 24.375 30.0422 24.4219 30.2995 24.5491L30.462 24.0402ZM33.1906 23.0424H32.6557V24.3348C32.1005 23.6049 30.6313 23.9933 30.6313 25.2656C30.6313 26.5647 32.1547 26.9129 32.6557 26.1964V26.5045H33.1906V23.0424ZM33.7052 18.0134V18.3214H33.7594V18.0134H33.888V17.9598H33.5766V18.0134H33.7052ZM34.1521 26.3036C34.1521 26.2701 34.1521 26.2299 34.1318 26.1964C34.1115 26.1763 34.0979 26.1429 34.0776 26.1228C34.0573 26.1027 34.0234 26.0893 34.0031 26.0692C33.9693 26.0692 33.9286 26.0491 33.8948 26.0491C33.8745 26.0491 33.8406 26.0692 33.8 26.0692C33.7661 26.0893 33.7458 26.1027 33.7255 26.1228C33.6917 26.1429 33.6714 26.1763 33.6714 26.1964C33.651 26.2299 33.651 26.2701 33.651 26.3036C33.651 26.3237 33.651 26.3571 33.6714 26.3973C33.6714 26.4174 33.6917 26.4509 33.7255 26.471C33.7458 26.4911 33.7594 26.5045 33.8 26.5246C33.8339 26.5446 33.8745 26.5446 33.8948 26.5446C33.9286 26.5446 33.9693 26.5446 34.0031 26.5246C34.0234 26.5045 34.0573 26.4911 34.0776 26.471C34.0979 26.4509 34.1115 26.4174 34.1318 26.3973C34.1521 26.3571 34.1521 26.3237 34.1521 26.3036ZM34.3688 17.9531H34.274L34.1656 18.1875L34.0573 17.9531H33.9625V18.3147H34.0167V18.0402L34.125 18.2746H34.1995L34.2943 18.0402V18.3147H34.3688V17.9531ZM34.6667 12.5625C34.6667 7.45982 30.462 3.30134 25.2891 3.30134C23.4474 3.30134 21.6396 3.85045 20.1094 4.84821C24.9911 8.8192 25.0656 16.3326 20.1094 20.2835C21.6396 21.2879 23.4609 21.8304 25.2891 21.8304C30.462 21.8371 34.6667 17.6853 34.6667 12.5625Z" fill="black"/>
</svg>
