<svg width="39" height="30" viewBox="0 0 39 30" fill="none" xmlns="http://www.w3.org/2000/svg">
<path d="M31.8297 13.346C31.8297 13.346 32.3443 15.8371 32.4594 16.3594H30.1979C30.4214 15.7634 31.2813 13.4464 31.2813 13.4464C31.2677 13.4665 31.5047 12.8371 31.6401 12.4487L31.8297 13.346ZM39 3.21429V26.7857C39 28.5603 37.5443 30 35.75 30H3.25C1.45573 30 0 28.5603 0 26.7857V3.21429C0 1.43973 1.45573 0 3.25 0H35.75C37.5443 0 39 1.43973 39 3.21429ZM10.3255 20.0357L14.6047 9.64286H11.7271L9.06615 16.7411L8.775 15.3013L7.82708 10.5201C7.67135 9.85714 7.19063 9.66964 6.59479 9.64286H2.21406L2.16667 9.85045C3.23646 10.1183 4.19115 10.5067 5.02396 10.9955L7.44792 20.0357H10.3255ZM16.7172 20.0491L18.4234 9.64286H15.7016L14.0021 20.0491H16.7172ZM26.1896 16.6473C26.2031 15.4621 25.4719 14.558 23.9078 13.8147C22.9531 13.3393 22.3708 13.0179 22.3708 12.529C22.3844 12.0871 22.8651 11.6317 23.9349 11.6317C24.8219 11.6116 25.4719 11.8192 25.9594 12.0268L26.2031 12.1406L26.5755 9.89062C26.0406 9.68303 25.1875 9.44866 24.138 9.44866C21.45 9.44866 19.5609 10.8683 19.5474 12.8906C19.5271 14.3839 20.9016 15.2143 21.9307 15.7165C22.9802 16.2254 23.3391 16.5603 23.3391 17.0089C23.3255 17.7054 22.4859 18.0268 21.7073 18.0268C20.624 18.0268 20.0417 17.8594 19.1547 17.471L18.7958 17.3036L18.4167 19.6406C19.0531 19.9286 20.2313 20.183 21.45 20.1964C24.3073 20.2031 26.1693 18.8036 26.1896 16.6473ZM35.75 20.0491L33.5563 9.64286H31.4505C30.8005 9.64286 30.3063 9.83036 30.0286 10.5067L25.9865 20.0491H28.8438C28.8438 20.0491 29.3109 18.7634 29.4125 18.4888H32.9062C32.9875 18.8571 33.2313 20.0491 33.2313 20.0491H35.75Z" fill="black"/>
</svg>
