<svg width="39" height="30" viewBox="0 0 39 30" fill="none" xmlns="http://www.w3.org/2000/svg">
<path d="M12.6141 15.1473C12.6141 15.9643 11.9573 16.5871 11.1245 16.5871C10.5016 16.5871 10.0411 16.2388 10.0411 15.5826C10.0411 14.7656 10.6844 14.1094 11.5104 14.1094C12.1401 14.1094 12.6141 14.4911 12.6141 15.1473ZM5.45052 11.8996H5.13229C5.03073 11.8996 4.92917 11.9665 4.91563 12.0804L4.62448 13.8683L5.17969 13.8482C5.92448 13.8482 6.5 13.7478 6.63542 12.8973C6.79115 12 6.21563 11.8996 5.45052 11.8996ZM24.6797 11.8996H24.375C24.2531 11.8996 24.1719 11.9665 24.1583 12.0804L23.874 13.8683L24.4156 13.8482C25.2958 13.8482 25.9052 13.6473 25.9052 12.6429C25.8984 11.933 25.2552 11.8996 24.6797 11.8996ZM39 3.21429V26.7857C39 28.5603 37.5443 30 35.75 30H3.25C1.45573 30 0 28.5603 0 26.7857V3.21429C0 1.43973 1.45573 0 3.25 0H35.75C37.5443 0 39 1.43973 39 3.21429ZM8.68698 12.2812C8.68698 10.875 7.5901 10.4062 6.3375 10.4062H3.62917C3.4599 10.4062 3.29063 10.5402 3.27708 10.721L2.16667 17.558C2.14635 17.692 2.24792 17.8259 2.38333 17.8259H3.66979C3.8526 17.8259 4.02188 17.6317 4.04219 17.4442L4.34688 15.6629C4.41458 15.1808 5.24062 15.3482 5.56563 15.3482C7.50208 15.3482 8.68698 14.2098 8.68698 12.2812ZM14.388 12.8705H13.1016C12.8443 12.8705 12.8307 13.2388 12.8172 13.4196C12.4245 12.8504 11.8557 12.75 11.2125 12.75C9.55365 12.75 8.2875 14.1897 8.2875 15.7768C8.2875 17.0826 9.11354 17.933 10.4339 17.933C11.0432 17.933 11.8016 17.6049 12.2281 17.1362C12.1943 17.2366 12.1604 17.4509 12.1604 17.5513C12.1604 17.7054 12.2281 17.8192 12.3771 17.8192H13.5417C13.7245 17.8192 13.8802 17.625 13.9141 17.4375L14.6047 13.1317C14.625 13.0045 14.5234 12.8705 14.388 12.8705ZM17.1302 19.4263L21.4432 13.2254C21.4771 13.192 21.4771 13.1585 21.4771 13.1116C21.4771 12.9978 21.3755 12.8772 21.2604 12.8772H19.9604C19.8453 12.8772 19.7234 12.9442 19.6557 13.0446L17.8615 15.6562L17.1167 13.1451C17.0625 12.9978 16.9135 12.8772 16.7443 12.8772H15.4781C15.363 12.8772 15.2615 12.9978 15.2615 13.1116C15.2615 13.192 16.5818 16.9152 16.6969 17.2701C16.5141 17.5246 15.3089 19.1853 15.3089 19.3862C15.3089 19.5067 15.4104 19.6004 15.5255 19.6004H16.8255C16.9474 19.5938 17.0625 19.5268 17.1302 19.4263ZM27.9161 12.2812C27.9161 10.875 26.8193 10.4062 25.5667 10.4062H22.8786C22.6958 10.4062 22.5266 10.5402 22.5063 10.721L21.4094 17.5513C21.3958 17.6853 21.4974 17.8192 21.626 17.8192H23.0141C23.1495 17.8192 23.251 17.7187 23.2849 17.6049L23.5896 15.6629C23.6573 15.1808 24.4833 15.3482 24.8083 15.3482C26.7313 15.3482 27.9161 14.2098 27.9161 12.2812ZM33.6172 12.8705H32.3307C32.0734 12.8705 32.0599 13.2388 32.0396 13.4196C31.6672 12.8504 31.0917 12.75 30.4349 12.75C28.776 12.75 27.5099 14.1897 27.5099 15.7768C27.5099 17.0826 28.3359 17.933 29.6563 17.933C30.2859 17.933 31.0443 17.6049 31.4505 17.1362C31.4302 17.2366 31.3828 17.4509 31.3828 17.5513C31.3828 17.7054 31.4505 17.8192 31.5995 17.8192H32.7708C32.9536 17.8192 33.1094 17.625 33.1432 17.4375L33.8339 13.1317C33.8542 13.0045 33.7526 12.8705 33.6172 12.8705ZM36.8333 10.6406C36.8333 10.5067 36.7318 10.4062 36.6167 10.4062H35.3641C35.2625 10.4062 35.1609 10.4866 35.1474 10.5871L34.0505 17.5513L34.0302 17.5848C34.0302 17.7054 34.1318 17.8192 34.2672 17.8192H35.3844C35.5536 17.8192 35.7229 17.625 35.7365 17.4375L36.8333 10.6607V10.6406ZM30.7396 14.1094C29.9135 14.1094 29.2703 14.7589 29.2703 15.5826C29.2703 16.2321 29.7443 16.5871 30.3672 16.5871C31.1797 16.5871 31.8365 15.971 31.8365 15.1473C31.8432 14.4911 31.3693 14.1094 30.7396 14.1094Z" fill="black"/>
</svg>
