<svg width="40" height="31" viewBox="0 0 40 31" fill="none" xmlns="http://www.w3.org/2000/svg">
<path d="M8.65972 11.7496C8.66667 10.933 8.65972 10.1234 8.65972 9.30692V6.86428C8.65972 6.77433 8.6875 6.72589 8.75694 6.67745C9.55556 6.12388 10.4306 5.84018 11.4097 5.90937C12.2778 5.97165 12.9861 6.39375 13.3611 7.41094C13.5903 8.02679 13.6458 8.67031 13.6458 9.32768C13.6458 9.92969 13.5972 10.5248 13.4097 11.0991C13.0139 12.3308 12.1111 12.8083 10.9306 12.7529C10.1181 12.7183 9.40972 12.4069 8.75 11.9433C8.6875 11.8879 8.65278 11.8326 8.65972 11.7496ZM19.4167 12.7598C19.7361 12.8844 20.0625 12.8982 20.3958 12.8636C21.2014 12.7806 21.9167 12.4692 22.5694 11.9987C22.6319 11.9571 22.6597 11.9087 22.6597 11.8257C22.6528 11.5558 22.6597 11.279 22.6597 11.0092C22.6597 10.7324 22.6528 10.4556 22.6597 10.1788C22.6597 10.0819 22.6319 10.0404 22.5347 10.0266C22.0486 9.96428 21.5694 9.87433 21.0833 9.82589C20.5972 9.78437 20.1111 9.80513 19.6389 9.95737C19.1736 10.1096 18.8264 10.3864 18.6875 10.8638C18.5764 11.2375 18.5764 11.6112 18.6944 11.9848C18.8056 12.3654 19.0556 12.6214 19.4167 12.7598ZM40 3.32143V27.6786C40 29.5123 38.5069 31 36.6667 31H3.33333C1.49306 31 0 29.5123 0 27.6786V3.32143C0 1.48772 1.49306 0 3.33333 0H36.6667C38.5069 0 40 1.48772 40 3.32143ZM25.5903 4.97522C25.6181 5.09286 25.6528 5.21049 25.7014 5.32812C26.8472 8.1375 27.9861 10.9538 29.1389 13.7632C29.2361 14.0054 29.2569 14.206 29.1528 14.4482C28.9583 14.8772 28.8125 15.3201 28.6111 15.7422C28.4306 16.1228 28.1458 16.3996 27.7292 16.5172C27.4375 16.5933 27.1389 16.6071 26.8333 16.5795C26.6875 16.5656 26.5417 16.531 26.3958 16.5241C26.2014 16.5103 26.1042 16.6002 26.0972 16.8009C26.0903 16.9946 26.0903 17.1884 26.0972 17.3752C26.1042 17.6935 26.2083 17.8388 26.5278 17.8942C26.8542 17.9496 27.1806 18.0049 27.5139 18.0118C28.5069 18.0326 29.2986 17.6382 29.8125 16.7732C30.0139 16.4342 30.2014 16.0743 30.3472 15.7076C31.7222 12.2408 33.0903 8.76719 34.4583 5.29353C34.5 5.18973 34.5347 5.08594 34.5486 4.97522C34.5764 4.80915 34.5 4.72612 34.3333 4.7192C33.9444 4.71228 33.5625 4.7192 33.1736 4.7192C32.9583 4.7192 32.8056 4.81607 32.7292 5.01674C32.7014 5.09286 32.6667 5.17589 32.6389 5.25201L30.6181 11.0437C30.4722 11.4658 30.3264 11.881 30.1667 12.3308C30.1389 12.2685 30.125 12.2339 30.1111 12.1993C29.3611 10.1304 28.6111 8.05446 27.8611 5.98549C27.7431 5.66027 27.6181 5.32812 27.4931 5.0029C27.4306 4.82991 27.3056 4.72612 27.1181 4.72612C26.6736 4.7192 26.2292 4.71228 25.7847 4.7192C25.6319 4.7192 25.5556 4.82991 25.5903 4.97522ZM16.8333 12.0402C16.9514 12.8498 17.3611 13.4795 18.0833 13.8808C18.7708 14.2614 19.5208 14.3098 20.2847 14.1991C21.1667 14.0676 21.9444 13.694 22.6319 13.1266C22.6597 13.1058 22.6875 13.085 22.7292 13.0574C22.7639 13.2788 22.7917 13.4864 22.8333 13.694C22.8681 13.8739 22.9792 13.9915 23.1458 13.9984C23.4653 14.0054 23.7778 14.0054 24.0972 13.9984C24.2569 13.9915 24.3611 13.8877 24.375 13.7286C24.3819 13.6732 24.3819 13.6179 24.3819 13.5694V7.42478C24.3819 7.17567 24.3681 6.92656 24.3333 6.67745C24.2222 5.93013 23.9028 5.31429 23.2292 4.91987C22.8403 4.69152 22.4097 4.57388 21.9653 4.51161C21.7569 4.48393 21.5486 4.46317 21.3333 4.43549H20.6389C20.5833 4.44241 20.5278 4.45625 20.4653 4.45625C19.8958 4.48393 19.3333 4.55312 18.7847 4.69844C18.4306 4.78839 18.0903 4.91987 17.7431 5.0375C17.5347 5.1067 17.4306 5.25893 17.4375 5.48728C17.4444 5.68103 17.4306 5.87478 17.4375 6.06161C17.4444 6.34531 17.5625 6.42143 17.8333 6.34531C18.2847 6.22768 18.7431 6.10312 19.2014 6.01317C19.9167 5.8817 20.6389 5.82634 21.3611 5.93013C21.7361 5.98549 22.0903 6.0962 22.3403 6.41451C22.5556 6.69129 22.6319 7.02344 22.6458 7.3625C22.6667 7.83995 22.6597 8.32433 22.6667 8.80179C22.6667 8.82946 22.6597 8.85022 22.6528 8.88482C22.625 8.88482 22.5972 8.88482 22.5764 8.8779C21.9653 8.73259 21.3472 8.62879 20.7153 8.5942C20.0556 8.5596 19.4028 8.60112 18.7778 8.81562C18.0278 9.07857 17.4236 9.52835 17.0694 10.2549C16.7847 10.8292 16.75 11.4312 16.8333 12.0402ZM6.85417 5.18281V17.3129C6.85417 17.3683 6.85417 17.4306 6.86111 17.4859C6.875 17.6589 6.97917 17.7696 7.14583 17.7766C7.55556 17.7835 7.96528 17.7835 8.375 17.7766C8.54861 17.7766 8.65278 17.6589 8.65972 17.4929C8.66667 17.4375 8.66667 17.3752 8.66667 17.3199V13.1196C8.72917 13.1681 8.76389 13.2027 8.79861 13.2304C9.84028 14.0953 11.0347 14.379 12.3472 14.123C13.5347 13.8877 14.3542 13.1612 14.8958 12.1025C15.2986 11.2998 15.4722 10.4348 15.5 9.54219C15.5347 8.55268 15.4306 7.57701 15.0278 6.6567C14.5347 5.52187 13.7153 4.76763 12.4792 4.51853C12.2917 4.47701 12.0972 4.46317 11.9097 4.43549H11.4236C11.3403 4.44933 11.2569 4.45625 11.1736 4.47009C10.3611 4.56696 9.625 4.87143 8.96528 5.34888C8.82639 5.44576 8.69444 5.55647 8.55556 5.66027C8.54861 5.62567 8.53472 5.60491 8.52778 5.57723C8.5 5.41808 8.47917 5.25893 8.45139 5.09978C8.40972 4.82991 8.27778 4.7192 8.00694 4.71228H7.33333C6.92361 4.70536 6.85417 4.78147 6.85417 5.18281ZM34.2778 21.2433C34.0903 21.1949 33.9236 21.2433 33.75 21.3125C30.7014 22.5857 27.5347 23.4022 24.25 23.7897C23.2431 23.9074 22.2292 23.9835 21.2153 24.0112C19.3681 24.0596 17.5208 23.9558 15.6875 23.7136C14.4514 23.5475 13.2222 23.3192 12.0069 23.0286C9.4375 22.4127 6.95833 21.527 4.59722 20.3438C3.98611 20.0393 3.38889 19.7002 2.78472 19.375C2.52083 19.2297 2.35417 19.2712 2.21528 19.5203V19.6379C2.29861 19.7487 2.36806 19.8732 2.47222 19.9701C4.97222 22.1982 7.79167 23.8797 10.9444 25.0145C12.4653 25.5612 14.0278 25.9625 15.6181 26.2254C16.5903 26.3846 17.5625 26.4884 18.5486 26.5368C18.7569 26.5437 18.9653 26.5507 19.1736 26.5645C19.2222 26.5645 19.2708 26.5783 19.3194 26.5853H20.5486C20.5972 26.5783 20.6458 26.5645 20.6944 26.5645C21.7292 26.5368 22.7639 26.44 23.7917 26.2877C25.2778 26.0663 26.7361 25.7272 28.1597 25.2705C30.2153 24.6062 32.1667 23.7205 33.9514 22.4958C34.1458 22.3643 34.3472 22.2328 34.5069 22.0667C34.8056 21.7623 34.6667 21.3471 34.2778 21.2433ZM37.7778 19.3266C37.7222 19.0359 37.5 18.9252 37.25 18.8422C36.8542 18.7107 36.4444 18.6484 36.0278 18.6138C35.2639 18.5516 34.5 18.5862 33.75 18.7246C32.9167 18.8768 32.125 19.1467 31.4236 19.631C31.3403 19.6864 31.2569 19.7556 31.2083 19.8386C31.1667 19.9009 31.1597 19.9978 31.1736 20.0739C31.1944 20.1638 31.2917 20.1846 31.3819 20.1777C31.4236 20.1777 31.4653 20.1777 31.5069 20.1708L32.8611 20.0254C33.5278 19.9632 34.1944 19.9217 34.8611 19.9701C35.1458 19.9908 35.4236 20.0531 35.6944 20.1223C35.9931 20.1984 36.125 20.4268 36.1389 20.7243C36.1597 21.1879 36.0556 21.6308 35.9375 22.0737C35.6944 22.9663 35.3611 23.8312 35.0139 24.6893C34.9931 24.7446 34.9653 24.8069 34.9583 24.8623C34.9306 25.0353 35.0278 25.1391 35.1944 25.1045C35.2917 25.0837 35.4028 25.0283 35.4722 24.9592C35.7292 24.71 35.9931 24.4609 36.2083 24.1842C36.9514 23.2292 37.3889 22.1359 37.6458 20.9596C37.6944 20.752 37.7292 20.5375 37.7639 20.3299C37.7778 20.0047 37.7778 19.6656 37.7778 19.3266Z" fill="black"/>
</svg>