<svg width="97" height="75" viewBox="0 0 97 75" fill="none" xmlns="http://www.w3.org/2000/svg">
<path d="M31.3734 37.8683C31.3734 39.9107 29.7399 41.4676 27.6686 41.4676C26.1193 41.4676 24.9741 40.5971 24.9741 38.9565C24.9741 36.9141 26.574 35.2734 28.6285 35.2734C30.1946 35.2734 31.3734 36.2277 31.3734 37.8683ZM13.5564 29.7489H12.7649C12.5123 29.7489 12.2597 29.9163 12.226 30.2009L11.5019 34.6708L12.8828 34.6205C14.7352 34.6205 16.1667 34.3694 16.5035 32.2433C16.8908 30 15.4594 29.7489 13.5564 29.7489ZM61.3828 29.7489H60.625C60.3219 29.7489 60.1198 29.9163 60.0861 30.2009L59.3788 34.6708L60.726 34.6205C62.9153 34.6205 64.4309 34.1183 64.4309 31.6071C64.4141 29.8326 62.8142 29.7489 61.3828 29.7489ZM97 8.03571V66.9643C97 71.4007 93.3793 75 88.9167 75H8.08333C3.62066 75 0 71.4007 0 66.9643V8.03571C0 3.59933 3.62066 0 8.08333 0H88.9167C93.3793 0 97 3.59933 97 8.03571ZM21.6061 30.7031C21.6061 27.1875 18.878 26.0156 15.7625 26.0156H9.02639C8.60538 26.0156 8.18437 26.3504 8.15069 26.8025L5.38889 43.8951C5.33837 44.2299 5.59097 44.5647 5.92778 44.5647H9.12743C9.58212 44.5647 10.0031 44.0792 10.0536 43.6105L10.8115 39.1574C10.9799 37.952 13.0344 38.3705 13.8427 38.3705C18.659 38.3705 21.6061 35.5246 21.6061 30.7031ZM35.7856 32.1763H32.5859C31.946 32.1763 31.9123 33.0971 31.8786 33.5491C30.9019 32.1261 29.4873 31.875 27.8875 31.875C23.7616 31.875 20.6125 35.4743 20.6125 39.442C20.6125 42.7065 22.667 44.8326 25.9509 44.8326C27.4665 44.8326 29.3526 44.0123 30.4135 42.8404C30.3293 43.0915 30.2451 43.6272 30.2451 43.8783C30.2451 44.2634 30.4135 44.548 30.784 44.548H33.6806C34.1352 44.548 34.5226 44.0625 34.6068 43.5938L36.3245 32.8292C36.375 32.5112 36.1224 32.1763 35.7856 32.1763ZM42.6059 48.5658L53.3332 33.0636C53.4174 32.9799 53.4174 32.8962 53.4174 32.779C53.4174 32.4944 53.1648 32.1931 52.8785 32.1931H49.6451C49.3589 32.1931 49.0557 32.3605 48.8873 32.6116L44.4247 39.1406L42.5722 32.8627C42.4375 32.4944 42.067 32.1931 41.646 32.1931H38.4969C38.2106 32.1931 37.958 32.4944 37.958 32.779C37.958 32.9799 41.2418 42.2879 41.5281 43.1752C41.0734 43.8114 38.0759 47.9632 38.0759 48.4654C38.0759 48.7667 38.3285 49.0011 38.6148 49.0011H41.8481C42.1512 48.9844 42.4375 48.817 42.6059 48.5658ZM69.4325 30.7031C69.4325 27.1875 66.7043 26.0156 63.5889 26.0156H56.9033C56.4486 26.0156 56.0276 26.3504 55.9771 26.8025L53.249 43.8783C53.2153 44.2132 53.4679 44.548 53.7878 44.548H57.2401C57.5769 44.548 57.8295 44.2969 57.9137 44.0123L58.6715 39.1574C58.8399 37.952 60.8944 38.3705 61.7028 38.3705C66.4854 38.3705 69.4325 35.5246 69.4325 30.7031ZM83.612 32.1763H80.4123C79.7724 32.1763 79.7387 33.0971 79.6882 33.5491C78.762 32.1261 77.3306 31.875 75.697 31.875C71.5712 31.875 68.422 35.4743 68.422 39.442C68.422 42.7065 70.4766 44.8326 73.7604 44.8326C75.3266 44.8326 77.2127 44.0123 78.2231 42.8404C78.1726 43.0915 78.0547 43.6272 78.0547 43.8783C78.0547 44.2634 78.2231 44.548 78.5936 44.548H81.5069C81.9616 44.548 82.349 44.0625 82.4332 43.5938L84.1509 32.8292C84.2014 32.5112 83.9488 32.1763 83.612 32.1763ZM91.6111 26.6016C91.6111 26.2667 91.3585 26.0156 91.0722 26.0156H87.9568C87.7042 26.0156 87.4516 26.2165 87.4179 26.4676L84.6898 43.8783L84.6392 43.9621C84.6392 44.2634 84.8918 44.548 85.2286 44.548H88.0073C88.4283 44.548 88.8493 44.0625 88.883 43.5938L91.6111 26.6518V26.6016ZM76.4549 35.2734C74.4003 35.2734 72.8005 36.8973 72.8005 38.9565C72.8005 40.5804 73.9793 41.4676 75.5286 41.4676C77.5495 41.4676 79.183 39.9275 79.183 37.8683C79.1998 36.2277 78.021 35.2734 76.4549 35.2734Z" fill="black"/>
</svg>