<svg width="45" height="45" viewBox="0 0 45 45" fill="none" xmlns="http://www.w3.org/2000/svg">
<mask id="path-1-inside-1_528_36" fill="white">
<path d="M44.388 38.9054L35.6247 30.1435C35.2291 29.7481 34.693 29.5284 34.1304 29.5284H32.6977C35.1237 26.4261 36.5652 22.5242 36.5652 18.2795C36.5652 8.18182 28.382 0 18.2826 0C8.18322 0 0 8.18182 0 18.2795C0 28.3771 8.18322 36.5589 18.2826 36.5589C22.528 36.5589 26.4306 35.1177 29.5334 32.6921V34.1246C29.5334 34.687 29.7532 35.2231 30.1487 35.6186L38.912 44.3804C39.7383 45.2065 41.0743 45.2065 41.8917 44.3804L44.3792 41.8934C45.2055 41.0673 45.2055 39.7315 44.388 38.9054ZM18.2826 29.5284C12.0683 29.5284 7.03176 24.5015 7.03176 18.2795C7.03176 12.0662 12.0595 7.03056 18.2826 7.03056C24.4969 7.03056 29.5334 12.0574 29.5334 18.2795C29.5334 24.4927 24.5057 29.5284 18.2826 29.5284Z"/>
</mask>
<path d="M44.388 38.9054L35.6247 30.1435C35.2291 29.7481 34.693 29.5284 34.1304 29.5284H32.6977C35.1237 26.4261 36.5652 22.5242 36.5652 18.2795C36.5652 8.18182 28.382 0 18.2826 0C8.18322 0 0 8.18182 0 18.2795C0 28.3771 8.18322 36.5589 18.2826 36.5589C22.528 36.5589 26.4306 35.1177 29.5334 32.6921V34.1246C29.5334 34.687 29.7532 35.2231 30.1487 35.6186L38.912 44.3804C39.7383 45.2065 41.0743 45.2065 41.8917 44.3804L44.3792 41.8934C45.2055 41.0673 45.2055 39.7315 44.388 38.9054ZM18.2826 29.5284C12.0683 29.5284 7.03176 24.5015 7.03176 18.2795C7.03176 12.0662 12.0595 7.03056 18.2826 7.03056C24.4969 7.03056 29.5334 12.0574 29.5334 18.2795C29.5334 24.4927 24.5057 29.5284 18.2826 29.5284Z" fill="black"/>
<path d="M44.388 38.9054L50.7854 32.575L50.7684 32.5579L50.7514 32.5409L44.388 38.9054ZM32.6977 29.5284L25.6081 23.9843L14.2345 38.5284H32.6977V29.5284ZM29.5334 32.6921H38.5334V14.2328L23.9905 25.6016L29.5334 32.6921ZM41.8917 44.3804L35.5283 38.0159L35.5113 38.0329L35.4944 38.05L41.8917 44.3804ZM50.7514 32.5409L41.9881 23.779L29.2613 36.508L38.0246 45.2699L50.7514 32.5409ZM41.9881 23.779C39.8815 21.6728 37.0465 20.5284 34.1304 20.5284V38.5284C32.3394 38.5284 30.5768 37.8234 29.2613 36.508L41.9881 23.779ZM34.1304 20.5284H32.6977V38.5284H34.1304V20.5284ZM39.7873 35.0725C43.4102 30.4397 45.5652 24.5992 45.5652 18.2795H27.5652C27.5652 20.4491 26.8372 22.4125 25.6081 23.9843L39.7873 35.0725ZM45.5652 18.2795C45.5652 3.20981 33.3511 -9 18.2826 -9V9C23.4128 9 27.5652 13.1538 27.5652 18.2795H45.5652ZM18.2826 -9C3.2141 -9 -9 3.20981 -9 18.2795H9C9 13.1538 13.1523 9 18.2826 9V-9ZM-9 18.2795C-9 33.3491 3.2141 45.5589 18.2826 45.5589V27.5589C13.1523 27.5589 9 23.4051 9 18.2795H-9ZM18.2826 45.5589C24.6022 45.5589 30.443 43.4047 35.0763 39.7827L23.9905 25.6016C22.4183 26.8306 20.4538 27.5589 18.2826 27.5589V45.5589ZM20.5334 32.6921V34.1246H38.5334V32.6921H20.5334ZM20.5334 34.1246C20.5334 37.0416 21.6786 39.8768 23.7853 41.9831L36.5121 29.2541C37.8277 30.5695 38.5334 32.3325 38.5334 34.1246H20.5334ZM23.7853 41.9831L32.5486 50.7449L45.2754 38.0159L36.5121 29.2541L23.7853 41.9831ZM32.5486 50.7449C36.8705 55.0661 43.9307 55.1153 48.2891 50.7108L35.4944 38.05C38.2179 35.2977 42.606 35.3469 45.2754 38.0159L32.5486 50.7449ZM48.2552 50.7449L50.7426 48.2579L38.0158 35.5289L35.5283 38.0159L48.2552 50.7449ZM50.7426 48.2579C55.0787 43.9226 55.0786 36.9136 50.7854 32.575L37.9907 45.2358C35.3323 42.5493 35.3322 38.212 38.0158 35.5289L50.7426 48.2579ZM18.2826 20.5284C17.0328 20.5284 16.0318 19.5249 16.0318 18.2795H-1.96824C-1.96824 29.4781 7.10373 38.5284 18.2826 38.5284V20.5284ZM16.0318 18.2795C16.0318 17.0336 17.0332 16.0306 18.2826 16.0306V-1.96944C7.08578 -1.96944 -1.96824 7.09877 -1.96824 18.2795H16.0318ZM18.2826 16.0306C19.5324 16.0306 20.5334 17.034 20.5334 18.2795H38.5334C38.5334 7.08082 29.4614 -1.96944 18.2826 -1.96944V16.0306ZM20.5334 18.2795C20.5334 19.5253 19.532 20.5284 18.2826 20.5284V38.5284C29.4794 38.5284 38.5334 29.4602 38.5334 18.2795H20.5334Z" fill="black" mask="url(#path-1-inside-1_528_36)"/>
</svg>
